<?xml version="1.0" standalone="no"?>
<!DOCTYPE svg PUBLIC "-//W3C//DTD SVG 20010904//EN"
 "http://www.w3.org/TR/2001/REC-SVG-20010904/DTD/svg10.dtd">
<svg version="1.0" xmlns="http://www.w3.org/2000/svg"
 width="16.000000pt" height="16.000000pt" viewBox="0 0 16.000000 16.000000"
 preserveAspectRatio="xMidYMid meet">
<metadata>
Created by potrace 1.11, written by Peter Selinger 2001-2013
</metadata>
<g transform="translate(0.000000,16.000000) scale(0.005904,-0.005904)"
fill="#000000" stroke="none">
<path d="M10 1355 l0 -1335 1335 0 1335 0 0 180 c0 99 1 686 1 1305 0 619 -1
1139 -1 1155 l0 30 -1335 0 -1335 0 0 -1335z m2580 0 l0 -1245 -1245 0 -1245
0 0 1245 0 1245 1245 0 1245 0 0 -1245z"/>
<path d="M1674 2029 c-57 -16 -69 -40 -72 -150 l-4 -99 -134 -135 c-74 -74
-134 -130 -134 -125 0 20 -45 9 -72 -17 l-27 -26 -81 76 c-73 71 -83 77 -121
77 -40 0 -48 -5 -162 -117 -65 -65 -130 -135 -144 -157 -69 -107 -72 -247 -11
-489 25 -100 27 -102 138 -131 192 -50 348 -49 448 1 69 35 288 252 301 298
12 43 -5 75 -80 152 -101 105 -102 102 82 289 l152 153 87 -1 c115 -1 159 24
162 95 2 47 -11 64 -132 186 -111 111 -147 133 -196 120z m150 -178 c135 -136
136 -145 15 -149 l-86 -3 -41 42 c-42 41 -42 42 -42 114 0 85 6 105 29 105 9
0 65 -49 125 -109z m-712 -358 l67 -67 -84 -87 c-91 -94 -106 -129 -86 -192
13 -39 64 -91 104 -106 72 -27 106 -11 222 104 l63 63 66 -67 c36 -37 66 -73
66 -81 0 -23 -219 -235 -270 -262 -40 -21 -57 -23 -165 -22 -91 1 -141 7 -209
25 l-89 24 -14 45 c-25 87 -45 233 -41 299 8 104 34 150 160 278 62 62 119
113 127 113 9 0 46 -30 83 -67z m246 -104 c29 -28 52 -54 52 -58 0 -4 -51 -57
-113 -119 -77 -76 -121 -112 -136 -112 -30 0 -91 61 -91 91 0 15 36 59 112
136 62 62 115 113 118 113 3 0 29 -23 58 -51z"/>
</g>
</svg>
